<?xml version="1.0" standalone="no"?>
<!DOCTYPE svg PUBLIC "-//W3C//DTD SVG 20010904//EN"
 "http://www.w3.org/TR/2001/REC-SVG-20010904/DTD/svg10.dtd">
<svg version="1.0" xmlns="http://www.w3.org/2000/svg"
 width="506.000000pt" height="493.000000pt" viewBox="0 0 506.000000 493.000000"
 preserveAspectRatio="xMidYMid meet">

<g transform="translate(0.000000,493.000000) scale(0.100000,-0.100000)"
fill="#000000" stroke="none">
<path d="M2260 4605 c-109 -14 -208 -32 -263 -46 l-39 -10 3 -142 c2 -78 0
-147 -4 -154 -10 -16 -251 -95 -279 -91 -16 2 -41 32 -90 113 -37 61 -74 114
-82 119 -13 9 -27 1 -360 -206 -54 -33 -92 -64 -94 -75 -1 -10 29 -68 68 -128
38 -61 70 -119 70 -130 0 -23 -191 -215 -213 -215 -8 0 -33 13 -58 29 -154 99
-189 121 -198 121 -6 0 -45 -54 -88 -121 -43 -66 -104 -159 -136 -207 -37 -56
-56 -96 -55 -111 2 -19 28 -40 118 -95 63 -39 116 -79 118 -88 4 -23 -77 -255
-94 -269 -10 -8 -42 -7 -126 5 -130 19 -164 20 -173 6 -3 -5 -12 -65 -20 -132
-8 -68 -21 -172 -28 -231 -9 -77 -10 -112 -3 -123 7 -9 54 -20 131 -30 66 -8
130 -21 141 -29 19 -12 22 -27 28 -112 4 -54 8 -120 9 -148 l2 -50 -128 -45
c-71 -25 -132 -52 -137 -60 -11 -20 59 -278 96 -355 20 -42 35 -61 51 -63 26
-4 561 266 574 290 6 11 1 40 -15 90 -182 553 -61 1105 334 1521 262 276 572
436 955 490 82 11 90 14 97 37 4 14 12 131 18 260 6 129 13 264 16 300 3 36 1
70 -3 76 -14 20 -45 21 -143 9z"/>
<path d="M2488 3801 c-42 -6 -78 -21 -51 -21 13 0 38 -161 30 -191 -5 -18 -2
-19 46 -14 92 11 97 13 97 43 -1 25 -1 26 -12 7 -16 -28 -28 -35 -64 -35 -27
0 -32 4 -38 31 -10 51 -8 57 26 64 24 6 35 3 45 -11 15 -20 17 -6 7 34 -5 19
-8 20 -18 8 -6 -8 -24 -16 -41 -18 -29 -3 -30 -2 -33 45 l-3 47 37 0 c23 0 42
-7 51 -17 14 -17 14 -17 9 0 -3 10 -6 23 -6 28 0 10 -10 10 -82 0z"/>
<path d="M2997 3764 c-8 -8 1 -24 14 -24 5 0 9 7 9 15 0 15 -12 20 -23 9z"/>
<path d="M2710 3720 c-8 -5 -25 -7 -36 -4 -23 6 -41 -10 -24 -21 13 -8 13 -61
0 -86 -10 -17 -7 -19 22 -18 18 0 27 3 21 6 -8 3 -13 24 -13 53 0 36 4 49 17
54 34 14 56 -51 33 -95 -10 -17 -7 -19 22 -18 18 0 27 3 21 6 -8 3 -13 24 -13
53 0 31 -6 54 -16 64 -18 19 -15 18 -34 6z"/>
<path d="M2827 3702 c-20 -22 -21 -60 -3 -85 13 -17 16 -17 45 -2 21 10 34 26
38 45 3 17 12 30 19 30 30 0 12 18 -23 24 -54 9 -58 8 -76 -12z m57 -25 c8
-22 6 -31 -8 -45 -16 -16 -18 -16 -32 2 -17 24 -18 48 -2 64 17 17 31 10 42
-21z"/>
<path d="M2980 3691 c-10 -4 -16 -22 -17 -49 -1 -24 -7 -49 -12 -56 -13 -15
-4 -26 20 -26 12 0 16 5 13 15 -3 8 -1 38 6 65 13 56 12 61 -10 51z"/>
<path d="M2097 3674 c-8 -8 1 -24 14 -24 5 0 9 7 9 15 0 15 -12 20 -23 9z"/>
<path d="M3052 3640 c0 -17 -7 -43 -15 -59 -13 -26 -13 -30 0 -35 25 -10 28
-7 29 27 0 18 4 42 9 53 14 34 14 44 -4 44 -13 0 -18 -8 -19 -30z"/>
<path d="M2250 3645 c-7 -8 -16 -12 -22 -9 -5 3 -15 0 -24 -6 -12 -11 -12 -14
0 -24 17 -14 37 -72 30 -91 -4 -10 0 -12 15 -8 23 6 39 23 22 23 -13 0 -34 67
-27 85 3 8 15 15 26 15 21 0 41 -34 43 -78 1 -14 7 -20 15 -17 8 3 18 5 23 5
5 0 9 5 9 11 0 5 -4 8 -9 5 -5 -4 -17 16 -26 43 -19 59 -49 77 -75 46z"/>
<path d="M3113 3646 c21 -16 22 -52 2 -86 -20 -35 -19 -40 13 -39 15 0 22 3
16 5 -8 4 -7 19 3 55 17 56 7 79 -31 79 -20 -1 -20 -2 -3 -14z"/>
<path d="M2120 3595 c-7 -8 -8 -15 -3 -15 12 0 43 -65 43 -90 0 -17 3 -18 25
-8 20 9 22 13 10 22 -8 6 -23 32 -34 59 -11 26 -22 47 -24 47 -3 0 -10 -7 -17
-15z"/>
<path d="M3209 3581 c-16 -16 -29 -38 -29 -49 0 -27 32 -52 66 -51 21 1 23 3
9 6 -31 8 -45 23 -45 50 0 24 2 25 45 19 48 -8 54 -1 35 35 -15 27 -47 24 -81
-10z m61 0 c0 -14 -6 -17 -25 -13 -20 3 -23 7 -14 18 16 20 39 17 39 -5z"/>
<path d="M2813 3579 c3 -12 0 -22 -8 -25 -20 -8 -27 -34 -14 -50 15 -19 69
-18 97 2 35 24 27 68 -13 72 -16 2 -34 8 -39 13 -17 16 -29 10 -23 -12z m76
-32 c17 -21 -19 -50 -53 -41 -25 6 -35 32 -19 47 11 12 60 7 72 -6z"/>
<path d="M3325 3525 c-14 -13 -25 -35 -25 -49 0 -28 33 -56 65 -56 18 0 17 2
-5 13 -16 8 -26 23 -28 41 l-4 29 46 -7 c41 -6 46 -5 46 11 0 47 -56 57 -95
18z m65 -4 c0 -14 -5 -18 -20 -14 -21 5 -25 15 -13 26 13 14 33 6 33 -12z"/>
<path d="M1946 3499 c-8 -12 -19 -18 -24 -15 -22 13 -20 -25 3 -48 13 -13 27
-36 31 -50 7 -29 16 -32 33 -12 9 10 8 15 -2 19 -7 2 -21 21 -32 42 -20 36
-20 37 -1 51 24 17 42 4 65 -47 15 -34 18 -36 36 -23 10 8 14 14 9 14 -6 0
-24 20 -42 45 -35 50 -53 56 -76 24z"/>
<path d="M3455 3480 c8 -13 -37 -80 -55 -80 -9 0 -2 -9 15 -20 16 -10 31 -17
34 -14 3 3 0 8 -6 12 -9 5 -6 17 9 40 19 30 53 43 60 22 2 -5 9 -6 17 -1 20
13 3 33 -21 25 -17 -5 -20 -3 -15 10 5 12 0 16 -19 16 -14 0 -23 -4 -19 -10z"/>
<path d="M3617 3483 c-12 -11 -8 -23 8 -23 8 0 15 7 15 15 0 16 -12 20 -23 8z"/>
<path d="M1820 3415 c-18 -22 -15 -73 6 -96 19 -22 67 -25 81 -6 6 6 13 21 17
32 7 18 5 18 -14 -2 -11 -13 -27 -23 -34 -23 -18 0 -39 27 -31 40 4 6 1 9 -7
8 -7 -2 -14 8 -16 20 -3 19 0 23 15 20 10 -2 17 -11 15 -19 -2 -10 2 -9 15 4
16 15 16 19 3 27 -21 14 -36 12 -50 -5z"/>
<path d="M3555 3420 c9 -15 -42 -80 -63 -80 -13 0 -12 -5 8 -20 30 -24 41 -25
33 -4 -3 9 7 31 26 54 36 45 39 60 10 60 -11 0 -17 -4 -14 -10z"/>
<path d="M3626 3367 c3 -8 -13 -30 -35 -50 -34 -31 -38 -37 -24 -48 12 -11 17
-10 24 4 6 9 21 29 34 45 19 22 27 25 41 16 10 -6 19 -15 21 -21 5 -15 -46
-73 -64 -73 -14 0 -13 -3 2 -20 20 -23 37 -27 29 -7 -2 7 9 26 26 42 33 32 40
72 13 82 -10 3 -26 14 -36 25 -21 21 -39 24 -31 5z"/>
<path d="M1699 3300 c-7 -19 -18 -30 -30 -30 -12 0 -21 -9 -25 -26 -4 -16 -12
-23 -20 -20 -10 4 -14 -3 -14 -20 0 -14 4 -23 9 -20 5 3 25 -12 44 -33 25 -28
38 -36 46 -28 15 15 14 27 -2 27 -20 0 -57 43 -57 67 0 12 7 23 15 27 17 6 75
-39 75 -60 0 -21 18 -17 30 6 8 15 8 20 -3 20 -22 0 -70 57 -64 74 10 26 41
18 77 -19 26 -26 37 -32 47 -24 14 12 18 33 4 25 -4 -3 -26 10 -49 29 -49 43
-70 44 -83 5z"/>
<path d="M3720 3231 c-5 -11 -10 -27 -10 -35 0 -9 -9 -16 -20 -16 -11 0 -20
-6 -20 -14 0 -9 -12 -16 -27 -18 -39 -4 -42 -39 -7 -67 32 -25 67 -27 88 -5
20 20 20 24 -4 54 -26 34 -25 41 6 30 37 -14 52 -12 74 10 12 12 26 17 37 13
12 -5 9 4 -11 30 -23 30 -35 37 -62 37 -23 0 -37 -6 -44 -19z m78 -13 c3 -17
-30 -58 -48 -58 -18 0 -23 30 -11 56 13 29 54 30 59 2z m-104 -94 c30 -30 14
-61 -24 -49 -23 7 -44 41 -35 55 9 15 42 12 59 -6z"/>
<path d="M1536 3124 c-38 -38 0 -114 56 -114 36 0 58 25 58 65 0 56 -75 88
-114 49z m78 -25 c54 -43 15 -88 -47 -52 -35 21 -47 51 -25 64 21 14 44 10 72
-12z"/>
<path d="M1403 3097 c-10 -21 -9 -24 6 -20 11 3 34 -16 71 -58 l54 -62 -44 7
c-25 4 -64 10 -87 13 -30 4 -43 11 -43 22 -1 11 -5 8 -15 -9 -20 -34 -19 -38
10 -32 20 3 35 -5 73 -44 43 -44 45 -49 25 -52 -31 -5 -137 16 -141 28 -6 17
-18 11 -30 -15 -15 -34 -16 -32 16 -28 15 2 69 -2 120 -10 53 -8 92 -10 92 -4
0 5 -20 32 -45 60 -24 28 -43 52 -42 53 1 1 34 -3 72 -11 39 -7 72 -11 74 -9
2 2 -23 34 -55 71 -33 38 -68 81 -80 97 l-20 28 -11 -25z"/>
<path d="M3740 3014 c0 -3 12 -15 26 -27 24 -19 26 -25 22 -81 -11 -159 -178
-377 -518 -674 -322 -282 -395 -347 -398 -354 -2 -5 -8 -8 -12 -8 -5 0 -1 15
10 33 35 59 90 215 130 369 l40 153 52 44 c87 74 163 154 193 205 51 87 31
166 -42 166 -107 0 -219 -130 -308 -360 l-40 -103 -170 -126 c-330 -246 -516
-381 -524 -381 -2 0 22 28 53 63 180 199 350 432 417 571 93 193 47 359 -117
422 -38 15 -75 19 -169 19 -133 0 -195 -15 -330 -83 -227 -113 -413 -330 -423
-497 -5 -79 10 -126 53 -164 146 -127 455 8 582 254 34 65 43 167 19 213 -17
33 -44 46 -30 15 40 -91 -12 -211 -150 -349 -111 -111 -188 -154 -276 -154
-92 0 -140 52 -140 153 0 185 178 411 407 517 225 105 382 102 446 -8 40 -68
16 -216 -61 -367 -106 -212 -257 -420 -510 -703 -46 -51 -82 -98 -79 -105 2
-7 15 -13 30 -15 20 -2 53 15 124 64 174 121 444 315 632 457 101 76 186 136
188 133 3 -3 -26 -99 -65 -213 -66 -196 -105 -292 -151 -372 -23 -39 -20 -51
13 -51 27 0 60 25 193 147 132 122 163 147 171 138 10 -9 16 -168 8 -210 -4
-21 -14 -36 -26 -40 -42 -13 -17 -25 55 -25 43 0 75 4 75 10 0 6 -7 10 -15 10
-27 0 -35 39 -35 182 l0 143 212 175 c253 210 360 309 444 413 93 115 126 177
131 250 6 76 -7 111 -49 137 -31 19 -88 28 -88 14z m-468 -218 c12 -18 9 -54
-8 -94 -14 -36 -201 -228 -211 -218 -7 7 43 157 73 221 33 69 87 119 117 109
12 -4 25 -12 29 -18z"/>
<path d="M1215 2697 c-13 -40 -35 -122 -35 -131 0 -6 4 -5 9 3 7 11 24 9 96
-13 48 -14 93 -30 100 -36 9 -7 17 7 32 60 20 68 20 71 3 80 -28 15 -32 12
-17 -12 11 -17 12 -32 5 -55 -7 -27 -14 -33 -36 -33 -44 0 -65 20 -56 54 4 17
15 31 27 34 20 5 20 6 1 13 -32 13 -42 10 -37 -9 2 -10 0 -29 -6 -44 -9 -25
-11 -25 -51 -14 -41 10 -42 12 -36 45 6 38 21 52 44 43 9 -3 13 -1 9 5 -10 16
-48 23 -52 10z"/>
<path d="M1165 2497 c-6 -19 -25 -117 -25 -129 0 -7 4 -7 13 0 17 14 178 -14
194 -35 10 -13 13 -9 18 23 4 22 11 56 15 77 7 31 5 39 -10 47 -29 15 -32 12
-15 -14 12 -18 14 -32 7 -58 -8 -29 -12 -33 -38 -30 -47 4 -54 10 -54 42 0 22
6 33 23 40 13 5 16 9 7 10 -8 0 -26 3 -40 6 -18 4 -21 3 -11 -4 10 -7 12 -20
7 -46 -7 -36 -7 -36 -49 -30 -23 4 -43 8 -45 9 -2 2 0 19 3 38 4 22 15 38 28
44 l21 10 -23 6 c-13 3 -24 1 -26 -6z"/>
<path d="M1127 2228 c-5 -75 -2 -92 12 -69 7 10 28 11 97 6 49 -4 94 -11 100
-16 9 -7 13 11 16 63 4 73 -1 88 -32 88 -12 -1 -12 -3 3 -14 11 -9 17 -27 17
-55 l0 -42 -47 3 c-47 3 -48 4 -45 33 2 17 11 36 20 43 13 10 10 12 -24 11
-21 0 -33 -3 -26 -6 7 -2 12 -22 12 -44 0 -34 -3 -39 -22 -39 -53 0 -68 11
-68 47 0 27 5 36 21 40 16 4 17 8 7 14 -29 19 -35 8 -41 -63z"/>
<path d="M3030 2125 c-17 -21 -5 -45 24 -45 27 0 42 26 25 46 -15 18 -33 18
-49 -1z"/>
<path d="M1336 2095 c-7 -20 -185 -22 -205 -2 -11 10 -13 9 -7 -6 3 -10 7 -31
7 -45 1 -17 3 -21 6 -9 4 15 18 17 103 17 85 0 99 -2 103 -17 3 -10 5 3 6 30
1 48 -3 58 -13 32z"/>
<path d="M3280 2012 c-146 -65 -133 -291 19 -332 37 -10 51 -9 87 5 40 15 91
62 80 73 -3 2 -19 -7 -36 -21 -84 -71 -167 -30 -186 92 l-7 41 117 0 c114 0
116 0 116 23 0 32 -35 84 -72 107 -32 20 -88 25 -118 12z m95 -37 c16 -15 25
-36 25 -55 l0 -30 -75 0 c-74 0 -75 0 -75 26 0 31 50 84 80 84 11 0 32 -11 45
-25z"/>
<path d="M1355 1408 c-28 -79 -55 -180 -50 -188 11 -18 26 -10 36 20 9 25 16
30 45 30 21 0 34 -5 34 -13 0 -23 25 -48 41 -42 14 5 12 18 -17 103 -19 53
-34 98 -34 99 0 10 -51 1 -55 -9z m49 -85 c6 -20 4 -23 -18 -23 -30 0 -29 -2
-15 40 12 34 19 30 33 -17z"/>
<path d="M1510 1320 c0 -93 1 -100 20 -100 17 0 20 7 20 40 0 39 1 40 35 40
24 0 35 5 35 15 0 10 -11 15 -35 15 -31 0 -35 3 -35 25 0 23 4 25 40 25 33 0
40 3 40 20 0 18 -7 20 -60 20 l-60 0 0 -100z"/>
<path d="M1670 1320 c0 -93 1 -100 20 -100 17 0 20 7 20 40 0 39 1 40 35 40
24 0 35 5 35 15 0 10 -11 15 -35 15 -31 0 -35 3 -35 25 0 23 4 25 40 25 33 0
40 3 40 20 0 18 -7 20 -60 20 l-60 0 0 -100z"/>
<path d="M1830 1320 c0 -93 1 -100 20 -100 19 0 20 7 20 100 0 93 -1 100 -20
100 -19 0 -20 -7 -20 -100z"/>
<path d="M1927 1413 c-4 -3 -7 -48 -7 -100 0 -86 2 -93 20 -93 17 0 19 8 22
73 l3 72 34 -72 c30 -66 37 -73 62 -73 l29 0 0 100 c0 93 -1 100 -20 100 -18
0 -20 -7 -21 -72 l0 -73 -34 73 c-28 60 -38 72 -58 72 -13 0 -27 -3 -30 -7z"/>
<path d="M2140 1320 c0 -93 1 -100 20 -100 19 0 20 7 20 100 0 93 -1 100 -20
100 -19 0 -20 -7 -20 -100z"/>
<path d="M2220 1400 c0 -16 6 -20 30 -20 l30 0 0 -80 c0 -73 2 -80 20 -80 18
0 20 7 20 79 0 79 0 80 28 83 16 2 27 9 27 18 0 12 -17 16 -77 18 -73 3 -78 1
-78 -18z"/>
<path d="M2400 1413 c0 -5 14 -30 30 -58 20 -34 30 -64 30 -92 0 -36 3 -43 20
-43 17 0 20 7 20 40 0 25 9 55 23 78 47 74 50 82 28 82 -11 0 -28 -14 -41 -35
-12 -19 -25 -35 -29 -35 -4 0 -15 16 -24 35 -11 23 -24 35 -37 35 -11 0 -20
-3 -20 -7z"/>
<path d="M2691 1401 c-41 -41 -35 -157 9 -181 26 -14 93 -13 114 3 13 10 17
24 14 57 -3 44 -4 45 -40 48 -33 3 -38 0 -38 -17 0 -15 6 -21 21 -21 29 0 22
-44 -8 -48 -52 -8 -83 76 -47 127 13 19 24 22 55 19 32 -3 39 0 39 14 0 27
-92 26 -119 -1z"/>
<path d="M2870 1320 c0 -92 1 -100 19 -100 16 0 20 8 23 37 4 47 23 53 45 13
33 -58 41 -66 53 -54 9 9 8 20 -5 45 -16 30 -16 34 -1 60 21 36 12 77 -21 90
-13 5 -44 9 -69 9 l-44 0 0 -100z m102 47 c12 -19 -4 -37 -33 -37 -24 0 -29 4
-29 23 0 13 3 27 7 30 8 9 46 -2 55 -16z"/>
<path d="M3079 1401 c-21 -17 -24 -28 -24 -86 0 -58 3 -69 24 -86 25 -21 66
-24 105 -9 47 17 59 138 19 183 -22 24 -94 23 -124 -2z m87 -19 c34 -22 24
-118 -14 -135 -21 -10 -27 -8 -43 12 -46 57 2 160 57 123z"/>
<path d="M3270 1331 c0 -82 2 -91 22 -105 30 -21 81 -20 106 2 17 14 21 30 23
92 2 99 1 100 -16 100 -12 0 -15 -15 -15 -74 0 -75 -13 -106 -44 -106 -27 0
-36 26 -36 102 0 71 -2 78 -20 78 -19 0 -20 -7 -20 -89z"/>
<path d="M3480 1321 c0 -94 1 -101 20 -101 17 0 20 7 20 40 0 38 2 40 31 40
48 0 69 16 69 54 0 44 -20 58 -86 64 l-54 4 0 -101z m92 59 c5 0 8 -10 6 -22
-2 -17 -11 -24 -30 -26 -24 -3 -28 0 -28 21 0 29 9 39 28 32 7 -3 18 -5 24 -5z"/>
<path d="M2961 1067 c-49 -25 -45 -91 6 -103 15 -3 38 -13 51 -20 53 -34 -1
-76 -63 -49 -30 12 -35 12 -35 0 0 -34 79 -47 118 -19 18 12 22 24 20 52 -3
33 -7 38 -43 50 -54 18 -72 36 -55 56 15 19 71 21 88 4 9 -9 12 -8 12 5 0 10
-12 22 -26 27 -33 13 -44 12 -73 -3z"/>
<path d="M602 968 c4 -122 21 -135 28 -21 l5 77 24 -52 c14 -29 28 -52 32 -52
3 0 17 26 30 58 l24 57 5 -84 c3 -55 9 -86 18 -89 9 -3 12 22 12 102 0 100 -1
106 -21 106 -15 0 -25 -13 -41 -50 -11 -27 -24 -50 -27 -50 -4 0 -17 23 -28
50 -16 38 -27 50 -42 50 -21 0 -22 -4 -19 -102z"/>
<path d="M842 972 c-36 -109 -36 -112 -21 -112 5 0 15 14 20 30 10 26 16 30
50 30 32 0 41 -4 49 -24 9 -24 28 -42 36 -34 2 3 -11 49 -29 104 -26 76 -38
100 -53 102 -16 2 -25 -13 -52 -96z m72 6 c6 -26 4 -28 -23 -28 -20 0 -29 4
-26 13 24 67 27 72 34 57 5 -8 11 -27 15 -42z"/>
<path d="M1010 965 c0 -63 4 -105 10 -105 6 0 10 38 10 93 l0 92 48 -90 c64
-121 76 -119 80 13 2 86 0 102 -13 102 -12 0 -15 -15 -15 -77 l0 -78 -42 78
c-29 52 -48 77 -60 77 -16 0 -18 -11 -18 -105z"/>
<path d="M1200 1060 c0 -5 5 -10 10 -10 6 0 10 -33 10 -80 0 -47 -4 -80 -10
-80 -5 0 -10 -7 -10 -15 0 -10 10 -15 34 -15 38 0 57 16 32 26 -23 9 -23 164
-1 164 8 0 15 5 15 10 0 6 -18 10 -40 10 -22 0 -40 -4 -40 -10z"/>
<path d="M1320 965 c0 -63 4 -105 10 -105 6 0 10 18 10 40 0 38 2 40 30 40 38
0 80 39 80 74 0 34 -35 56 -87 56 l-43 0 0 -105z m94 63 c16 -26 -4 -52 -43
-56 -30 -3 -31 -2 -31 38 0 40 1 41 31 38 18 -2 37 -11 43 -20z"/>
<path d="M1491 977 c-17 -50 -31 -98 -31 -105 0 -23 17 -12 30 18 11 26 18 30
50 30 32 0 39 -4 50 -30 13 -30 30 -41 30 -18 0 7 -14 55 -31 105 -24 72 -35
93 -49 93 -14 0 -25 -21 -49 -93z m63 29 c3 -13 9 -31 12 -40 5 -13 -1 -16
-26 -16 -25 0 -31 3 -26 16 3 9 9 27 12 40 3 13 10 24 14 24 4 0 11 -11 14
-24z"/>
<path d="M1652 968 l3 -103 58 -3 c46 -2 57 0 57 13 0 11 -11 15 -45 15 l-45
0 0 90 c0 74 -3 90 -15 90 -13 0 -15 -16 -13 -102z"/>
<path d="M1900 981 c0 -82 2 -91 22 -105 30 -21 71 -20 99 3 21 17 24 29 28
105 3 74 1 86 -13 86 -13 0 -16 -13 -16 -77 0 -85 -4 -97 -37 -107 -15 -5 -28
-1 -42 13 -18 18 -21 34 -21 96 0 43 -4 75 -10 75 -6 0 -10 -36 -10 -89z"/>
<path d="M2092 968 c2 -68 7 -103 15 -105 9 -3 13 20 15 83 l3 88 45 -84 c25
-46 51 -85 58 -88 9 -3 12 22 12 102 0 123 -18 145 -22 29 l-3 -78 -40 78
c-32 62 -44 77 -63 77 -22 0 -23 -1 -20 -102z"/>
<path d="M2280 1060 c0 -5 7 -10 15 -10 22 0 22 -155 -1 -164 -25 -10 -6 -26
32 -26 24 0 34 5 34 15 0 8 -4 15 -10 15 -6 0 -10 33 -10 80 0 47 4 80 10 80
6 0 10 5 10 10 0 6 -18 10 -40 10 -22 0 -40 -4 -40 -10z"/>
<path d="M2419 968 c24 -68 41 -103 51 -103 10 0 26 33 48 98 19 55 31 101 28
104 -11 12 -23 -10 -46 -81 -13 -42 -26 -76 -30 -76 -3 0 -17 35 -31 77 -16
49 -31 79 -41 81 -12 2 -8 -18 21 -100z"/>
<path d="M2582 968 l3 -103 63 -3 c51 -2 62 0 62 13 0 11 -12 15 -50 15 l-50
0 0 40 0 40 45 0 c25 0 45 5 45 10 0 6 -20 10 -45 10 -43 0 -45 1 -45 30 0 29
1 30 50 30 28 0 50 5 50 10 0 6 -28 10 -65 10 l-66 0 3 -102z"/>
<path d="M2750 964 c0 -80 3 -105 13 -102 6 3 13 23 15 46 2 23 8 42 15 42 6
0 29 -21 52 -47 52 -59 78 -55 30 5 -33 43 -34 43 -14 63 10 10 19 30 19 43 0
39 -25 56 -81 56 l-49 0 0 -106z m84 80 c19 -7 21 -45 4 -62 -7 -7 -22 -12
-35 -12 -20 0 -23 5 -23 40 0 41 13 50 54 34z"/>
<path d="M3090 1060 c0 -5 7 -10 15 -10 12 0 15 -16 15 -80 0 -64 -3 -80 -15
-80 -8 0 -15 -7 -15 -15 0 -11 11 -15 40 -15 29 0 40 4 40 15 0 8 -4 15 -10
15 -6 0 -10 33 -10 80 0 47 4 80 10 80 6 0 10 5 10 10 0 6 -18 10 -40 10 -22
0 -40 -4 -40 -10z"/>
<path d="M3190 1060 c0 -5 16 -10 35 -10 l34 0 3 -92 c2 -62 7 -93 16 -96 9
-3 12 20 12 92 l0 95 38 3 c35 3 38 1 69 -52 22 -38 32 -68 33 -97 0 -24 5
-43 10 -43 6 0 10 21 10 48 0 26 6 56 13 67 48 71 59 95 43 95 -8 0 -26 -18
-38 -40 -13 -22 -25 -40 -28 -40 -3 0 -16 18 -30 40 l-25 40 -97 0 c-59 0 -98
-4 -98 -10z"/>
<path d="M3650 1060 c0 -5 11 -10 25 -10 24 0 25 -2 25 -64 0 -83 -6 -96 -41
-96 -19 0 -29 -5 -29 -15 0 -18 41 -20 71 -5 17 9 19 22 19 105 l0 95 -35 0
c-19 0 -35 -4 -35 -10z"/>
<path d="M3782 972 c-36 -109 -36 -112 -21 -112 5 0 15 14 20 30 10 26 16 30
50 30 29 0 41 -5 46 -17 9 -27 24 -43 33 -38 5 3 -6 49 -24 103 -25 74 -37 98
-52 100 -16 2 -25 -13 -52 -96z m77 -9 c1 -8 -11 -13 -28 -13 l-30 0 16 47 16
47 13 -34 c7 -19 13 -41 13 -47z"/>
<path d="M3940 1060 c0 -5 7 -10 15 -10 12 0 15 -16 15 -80 0 -64 -3 -80 -15
-80 -8 0 -15 -7 -15 -15 0 -11 11 -15 40 -15 29 0 40 4 40 15 0 8 -7 15 -15
15 -12 0 -15 16 -15 80 0 64 3 80 15 80 8 0 15 5 15 10 0 6 -18 10 -40 10 -22
0 -40 -4 -40 -10z"/>
<path d="M4060 964 c0 -80 3 -105 13 -102 6 3 13 21 15 41 3 29 7 37 23 37 23
0 61 18 71 34 14 20 8 63 -10 79 -12 11 -36 17 -65 17 l-47 0 0 -106z m88 77
c8 -5 12 -21 10 -37 -2 -25 -8 -29 -35 -32 -32 -3 -33 -2 -33 37 0 36 3 41 23
41 12 0 28 -4 35 -9z"/>
<path d="M4220 990 c0 -73 3 -83 25 -105 29 -30 73 -33 105 -7 19 15 23 31 27
105 5 76 4 87 -11 87 -13 0 -16 -12 -16 -75 0 -62 -4 -79 -20 -95 -24 -24 -29
-24 -58 -4 -20 13 -22 24 -22 95 0 64 -3 79 -15 79 -12 0 -15 -16 -15 -80z"/>
<path d="M4420 964 c0 -80 3 -105 13 -102 6 3 13 23 15 46 2 24 8 42 15 42 7
0 28 -18 48 -41 45 -53 73 -49 30 4 -29 38 -30 38 -10 58 10 10 19 30 19 43 0
39 -25 56 -81 56 l-49 0 0 -106z m84 80 c19 -7 21 -45 4 -62 -7 -7 -22 -12
-35 -12 -20 0 -23 5 -23 40 0 41 13 50 54 34z"/>
</g>
</svg>
